<?xml version="1.0" encoding="UTF-8" standalone="no"?>
<svg width="32px" height="25px" viewBox="0 0 32 25" version="1.1" xmlns="http://www.w3.org/2000/svg" xmlns:xlink="http://www.w3.org/1999/xlink">
    <!-- Generator: sketchtool 49 (51002) - http://www.bohemiancoding.com/sketch -->
    <title>D01ECD32-C353-43A2-A156-BDC722F3E4E1</title>
    <desc>Created with sketchtool.</desc>
    <defs></defs>
    <g id="Page-1" stroke="none" stroke-width="1" fill="none" fill-rule="evenodd">
        <g id="View-PF" transform="translate(-344.000000, -264.000000)" fill="#FFFFFF" fill-rule="nonzero">
            <g id="client" transform="translate(344.000000, 264.000000)">
                <path d="M31.9985,22.6562817 C31.9981875,22.6515228 31.99825,22.6468274 31.9978125,22.6420685 C31.996125,22.6232234 31.9934375,22.6047589 31.989625,22.5866751 C31.98925,22.5848985 31.9886875,22.5831218 31.98825,22.5813452 C31.9845625,22.5647208 31.98,22.5484772 31.974625,22.5326142 C31.9731875,22.5283629 31.971625,22.5242386 31.9700625,22.5200508 C31.9648125,22.5056472 31.958875,22.4916244 31.9523125,22.4779822 C31.9511875,22.4755711 31.9504375,22.4730964 31.94925,22.4706853 L29.44225,17.4505076 L29.44225,0.934010152 C29.44225,0.426015228 29.0351875,0.0127538071 28.5348125,0.0127538071 L3.4650625,0.0127538071 C2.9646875,0.0127538071 2.557625,0.426015228 2.557625,0.934010152 L2.557625,17.4503807 L0.0506875,22.4706218 C0.0495,22.473033 0.04875,22.4755076 0.047625,22.4779188 C0.0410625,22.4915609 0.0351875,22.5055838 0.029875,22.5199239 C0.0283125,22.5241117 0.02675,22.5282995 0.0253125,22.5325508 C0.02,22.5484772 0.015375,22.5647843 0.0116875,22.5814086 C0.0113125,22.5831218 0.01075,22.584835 0.010375,22.5865482 C0.0065625,22.6046954 0.003875,22.6231599 0.0021875,22.6420051 C0.00175,22.6467005 0.00175,22.6514594 0.0015,22.6561548 C0.000875,22.6660533 0,22.6758249 0,22.6858503 L0,23.8930838 C0,24.4964467 0.4834375,24.9872462 1.07775,24.9872462 L30.92225,24.9872462 C31.5165625,24.9872462 32,24.4964467 32,23.8930838 L32,22.6858503 C32,22.6758249 31.999125,22.6660533 31.9985,22.6562817 Z M3.4951875,0.96465736 L28.5048125,0.96465736 L28.5048125,17.0883249 L3.4951875,17.0883249 L3.4951875,0.96465736 Z M3.3143125,18.0400381 L28.685625,18.0400381 L30.768,22.2098985 L20.46925,22.2098985 L19.9523125,20.3070431 C19.8470625,19.9196701 19.4971875,19.6491117 19.101375,19.6491117 L12.8985,19.6491117 C12.5026875,19.6491117 12.15275,19.9196701 12.0475625,20.3069797 L11.530625,22.2098985 L1.2319375,22.2098985 L3.3143125,18.0400381 Z M19.49675,22.2099619 L12.50325,22.2099619 L12.9403125,20.6009518 L19.0596875,20.6009518 L19.49675,22.2099619 Z M31.0625,23.8930203 C31.0625,23.9715102 30.9995625,24.0354061 30.92225,24.0354061 L1.07775,24.0354061 C1.0004375,24.0354061 0.9375,23.9715102 0.9375,23.8930203 L0.9375,23.1616751 L31.0625,23.1616751 L31.0625,23.8930203 Z" id="Shape"></path>
                <path d="M27.0360625,9.81954315 C26.777125,9.81954315 26.5673125,10.0325508 26.5673125,10.2954315 L26.5673125,15.1212563 L5.4326875,15.1212563 L5.4326875,10.2954315 C5.4326875,10.0325508 5.222875,9.81954315 4.9639375,9.81954315 C4.705,9.81954315 4.4951875,10.0325508 4.4951875,10.2954315 L4.4951875,15.3267766 C4.4951875,15.7382614 4.824875,16.073033 5.23025,16.073033 L26.7698125,16.073033 C27.175125,16.073033 27.504875,15.7383249 27.504875,15.3267766 L27.504875,10.2954315 C27.5048125,10.0326777 27.295,9.81954315 27.0360625,9.81954315 Z" id="Shape"></path>
                <path d="M26.76975,1.97988579 L5.23025,1.97988579 C4.8249375,1.97988579 4.4951875,2.31459391 4.4951875,2.72614213 L4.4951875,7.75748731 C4.4951875,8.02036802 4.705,8.23337563 4.9639375,8.23337563 C5.222875,8.23337563 5.4326875,8.02036802 5.4326875,7.75748731 L5.4326875,2.93166244 L26.5673125,2.93166244 L26.5673125,7.75748731 C26.5673125,8.02036802 26.777125,8.23337563 27.0360625,8.23337563 C27.295,8.23337563 27.5048125,8.02036802 27.5048125,7.75748731 L27.5048125,2.72614213 C27.5048125,2.31453046 27.175125,1.97988579 26.76975,1.97988579 Z" id="Shape"></path>
            </g>
        </g>
    </g>
</svg>