<?xml version="1.0" encoding="UTF-8" standalone="no"?>
<svg width="120px" height="120px" viewBox="0 0 120 120" version="1.1" xmlns="http://www.w3.org/2000/svg" xmlns:xlink="http://www.w3.org/1999/xlink">
    <!-- Generator: Sketch 49 (51002) - http://www.bohemiancoding.com/sketch -->
    <title>error-page</title>
    <desc>Created with Sketch.</desc>
    <defs></defs>
    <g id="Popups" stroke="none" stroke-width="1" fill="none" fill-rule="evenodd">
        <g id="Error" transform="translate(-540.000000, -136.000000)" fill="#E50539" fill-rule="nonzero">
            <g id="error-page" transform="translate(540.000000, 136.000000)">
                <path d="M118.222961,58.2421875 C117.251587,58.2421875 116.465149,59.0286255 116.465149,60 C116.465149,75.0878906 110.591126,89.2721557 99.9243164,99.9407958 C89.2575073,110.609436 75.0750731,116.484375 59.9908448,116.484375 C45.8267212,116.484375 32.2805787,111.217346 21.8463136,101.653748 C21.1303711,100.99823 20.0189208,101.046753 19.3624877,101.762695 C18.7069702,102.477722 18.7554933,103.590088 19.4705201,104.245605 C30.5548097,114.405212 44.9450684,120 59.9908448,120 C76.0144043,120 91.0794068,113.75885 102.409973,102.426453 C113.74054,91.0940552 119.980774,76.0263061 119.980774,60 C119.980774,59.0286255 119.194336,58.2421875 118.222961,58.2421875 Z" id="Shape"></path>
                <path d="M3.515625,60 C3.515625,44.9121094 9.38964844,30.7278443 20.0564576,20.0592042 C30.7232667,9.39056391 44.9057006,3.515625 59.9908448,3.515625 C73.7036133,3.515625 86.9265748,8.49151617 97.2216797,17.5277709 C107.423401,26.4807129 114.065552,38.7753295 115.924072,52.1484375 C116.057739,53.1097411 116.948547,53.7808228 117.907104,53.6471557 C118.869324,53.5134888 119.540405,52.6254272 119.406738,51.6641236 C117.43103,37.4560547 110.375977,24.394226 99.5407104,14.8846434 C88.6038209,5.286255 74.5578002,0 59.9908448,0 C43.9663697,0 28.9013672,6.24114984 17.5708008,17.5735474 C6.24023438,28.9059448 2.84217094e-14,43.9736939 2.84217094e-14,60 C2.84217094e-14,73.9077759 4.86694336,87.4639894 13.7036133,98.1710815 C14.0505982,98.5922241 14.5532227,98.8101197 15.0604247,98.8101197 C15.4541016,98.8101197 15.8505248,98.6782838 16.1782838,98.4072877 C16.927185,97.7893066 17.0324707,96.6824341 16.4144897,95.9326172 C8.09692383,85.8544922 3.515625,73.0929565 3.515625,60 Z" id="Shape"></path>
                <path d="M85.6338502,44.9185181 C87.2131348,43.3392333 87.2122193,40.7702637 85.6338502,39.1909791 L80.7962037,34.3524169 C79.2169191,32.7731323 76.6479492,32.774048 75.0686646,34.3524169 L60.4266356,48.9962768 C60.2691652,49.1537475 60.085144,49.1775513 59.9899291,49.1775513 C59.8947143,49.1775513 59.7106934,49.1537475 59.5532227,48.9962768 L44.9707031,34.4119263 C44.1897584,33.6309816 43.1515502,33.2006836 42.0474244,33.2006836 C40.9442138,33.2006836 39.9060059,33.6309816 39.1250611,34.4119263 L34.4055176,39.1323853 C32.7941895,40.7437134 32.7941895,43.3657837 34.4055176,44.9771119 L37.9623413,48.534851 C38.6489869,49.2214966 39.7613527,49.2214966 40.447998,48.534851 C41.1346434,47.8482056 41.1346434,46.7349244 40.447998,46.0491942 L36.8911744,42.4914551 C36.6503906,42.2506713 36.6503906,41.8588256 36.8911744,41.6180419 L41.6116334,36.8975831 C41.7691041,36.7401122 41.9522095,36.7163086 42.0474244,36.7163086 C42.1435547,36.7163086 42.3266602,36.7401122 42.4841309,36.8975831 L57.0666504,51.4819336 C57.8475952,52.2628784 58.8858033,52.6931763 59.9899291,52.6931763 C61.0940552,52.6931763 62.1322631,52.2628784 62.9132081,51.4819336 L77.5552369,36.8380737 C77.7621459,36.6302489 78.1018066,36.6293334 78.3096314,36.8380737 L83.1481934,41.6766356 C83.3560181,41.8853761 83.3560181,42.2241211 83.1481934,42.4328613 L68.5061646,57.0767212 C66.8939208,58.6880494 66.8939208,61.3110352 68.5061646,62.9223633 L83.0886841,77.5076295 C83.3294677,77.748413 83.3294677,78.1402589 83.0886841,78.3819581 L78.3682252,83.1024169 C78.2107545,83.2598878 78.027649,83.2827759 77.9324341,83.2827759 C77.8372193,83.2827759 77.6531981,83.2598878 77.4957277,83.1024169 L62.9132081,68.5171509 C62.1322631,67.7362059 61.0940552,67.3068237 59.9899291,67.3068237 C58.8858033,67.3068237 57.8475952,67.7362059 57.0666504,68.5171509 L42.4246216,83.1619263 C42.2955323,83.2910156 42.1481323,83.3175659 42.0474244,83.3175659 C41.9476317,83.3175659 41.8002319,83.2910156 41.6711426,83.1610106 L36.8325806,78.3224487 C36.6238404,78.1137084 36.6238404,77.7758789 36.8325806,77.5671387 L51.4746094,62.9232787 C53.0859375,61.3110352 53.0859375,58.6889648 51.4746094,57.0767212 L46.2808228,51.882019 C45.5941772,51.1953736 44.4808959,51.1953736 43.795166,51.882019 C43.1085206,52.5686646 43.1085206,53.6810302 43.795166,54.3676758 L48.9880371,59.5623778 C49.2297363,59.8031616 49.2297363,60.195923 48.9880371,60.4367065 L34.3469238,75.0814819 C32.7676392,76.659851 32.7676392,79.2288209 34.3469238,80.8081055 L39.1845703,85.6466674 C39.9490357,86.4120483 40.9661864,86.8331909 42.0483398,86.8331909 C43.1295776,86.8331909 44.1467285,86.4120483 44.9111939,85.6466674 L59.5541381,71.0028075 C59.7106934,70.845337 59.8947143,70.8224487 59.9908448,70.8224487 C60.0860597,70.8224487 60.2700806,70.845337 60.4275513,71.0028075 L75.0100709,85.5880737 C75.7901002,86.3690184 76.828308,86.7984009 77.9324341,86.7984009 C79.03656,86.7984009 80.0747681,86.3690184 80.8547974,85.5880737 L85.5752564,80.8676147 C87.1865845,79.2562866 87.1865845,76.6342162 85.5752564,75.0228881 L70.9927369,60.4367065 C70.7510377,60.195923 70.7510377,59.8031616 70.9927369,59.5623778 L85.6338502,44.9185181 Z" id="Shape"></path>
            </g>
        </g>
    </g>
</svg>