<?xml version="1.0" encoding="UTF-8" standalone="no"?>
<svg width="30px" height="30px" viewBox="0 0 30 30" version="1.1" xmlns="http://www.w3.org/2000/svg" xmlns:xlink="http://www.w3.org/1999/xlink">
    <!-- Generator: sketchtool 49 (51002) - http://www.bohemiancoding.com/sketch -->
    <title>125DEE64-5FA6-4EA5-AC17-5E8BA49208FC</title>
    <desc>Created with sketchtool.</desc>
    <defs></defs>
    <g id="Page-1" stroke="none" stroke-width="1" fill="none" fill-rule="evenodd">
        <g id="View-PF" transform="translate(-345.000000, -470.000000)" fill="#FFFFFF" fill-rule="nonzero">
            <g id="hash" transform="translate(345.000000, 470.000000)">
                <path d="M19.50025,13.8275862 C19.5001875,13.8275862 19.5000625,13.8275862 19.5,13.8275862 L19,13.8275862 L19,12.862069 C19,10.7291207 17.209125,9 15,9 C12.790875,9 11,10.7291207 11,12.862069 L11,13.8275862 L10.5,13.8275862 C10.2239375,13.8275259 10.0000625,14.0435603 10,14.3101034 C10,14.3101638 10,14.3102845 10,14.3103448 L10,22.5172414 C9.99993751,22.7837845 10.2236875,22.9999396 10.49975,23 C10.4998125,23 10.4999375,23 10.5,23 L19.5,23 C19.7760625,23.0000603 19.9999375,22.7840258 20,22.5174827 C20,22.5174224 20,22.5173017 20,22.5172414 L20,14.3103448 C20.0000625,14.0438017 19.7763125,13.8277069 19.50025,13.8275862 Z M12,12.862069 C12,11.2623276 13.343125,9.96551724 15,9.96551724 C16.656875,9.96551724 18,11.2623276 18,12.862069 L18,13.8275862 L17,13.8275862 L17,12.862069 C17,11.7955948 16.1045625,10.9310345 15,10.9310345 C13.8954375,10.9310345 13,11.7955948 13,12.862069 L13,13.8275862 L12,13.8275862 L12,12.862069 Z M16,12.862069 L16,13.8275862 L14,13.8275862 L14,12.862069 C14,12.3288017 14.4476875,11.8965517 15,11.8965517 C15.5523125,11.8965517 16,12.3288621 16,12.862069 Z M19,22.0344827 L11,22.0344827 L11,14.7931034 L19,14.7931034 L19,22.0344827 Z" id="Shape"></path>
                <path d="M16.3265489,16.4545531 C15.9605513,16.1604058 15.488492,15.9987016 14.9999953,16.0000084 C13.8986901,15.996997 13.0033211,16.8062002 13.0000086,17.8073917 C12.9985712,18.2514819 13.176445,18.6806289 13.5000053,19.0133556 L13.5000053,20.5454553 C13.4999428,20.7964208 13.7236913,20.9999432 13.999752,21 C13.9998145,21 13.9999395,21 14.000002,21 L15.9999886,21 C16.2760492,21.0000568 16.4999227,20.7966481 16.4999852,20.5456826 C16.4999852,20.5456258 16.4999852,20.5455121 16.4999852,20.5454553 L16.4999852,19.0133556 C17.2293553,18.2632432 17.1516684,17.1176201 16.3265489,16.4545531 Z M15.6654908,18.4900042 C15.5601165,18.5761972 15.4999919,18.6989811 15.4999919,18.8277877 L15.4999919,20.0909106 L14.4999986,20.0909106 L14.4999986,18.8278445 C14.4999986,18.6989811 14.4398115,18.5761972 14.3344997,18.4900042 C14.1220636,18.3201181 14.0002519,18.0754026 14.000002,17.8181871 C14.000002,17.3160857 14.4476865,16.9090978 14.9999953,16.9090978 C15.5523041,16.9090978 15.9999886,17.3160857 15.9999886,17.8181871 C15.9997386,18.0754026 15.8778644,18.3201181 15.6654908,18.4900042 Z" id="Shape"></path>
                <path d="M29.9350686,5.49993503 C29.7057581,4.61941742 28.9099819,4.00539198 28.0001127,4.00689159 C27.0909309,4.00957838 26.2982163,4.62597819 26.071655,5.5064958 L24.0012373,5.5064958 C23.7252524,5.50643331 23.5014403,5.73012428 23.5013778,6.00611393 C23.5013778,6.00617642 23.5013778,6.00630138 23.5013778,6.00636387 L23.5013778,9.66164913 C22.9903965,9.46063968 22.4892874,9.23919813 22.0017995,8.99688708 L22.0017995,3.93591032 C23.0709988,3.65985818 23.713943,2.56927102 23.4378957,1.50005321 C23.1618483,0.430835411 22.07128,-0.212119894 21.0020806,0.0639947312 C19.9328813,0.340046873 19.2899371,1.43063404 19.5659845,2.49985184 C19.7478084,3.20416595 20.2977787,3.75414579 21.0020806,3.9359728 L21.0020806,8.4572795 C18.7419037,7.20929638 16.8274421,5.4189564 15.4308973,3.24740454 C15.2674433,3.01152929 14.9437218,2.95273231 14.7078506,3.11618917 C14.656615,3.1516798 14.6121275,3.19616806 14.5766375,3.24740454 C13.6335902,4.7483209 12.4229307,6.06334883 11.0048919,7.12688063 L11.0048919,3.93591032 C12.0740913,3.65985818 12.7170355,2.56927102 12.4409881,1.50005321 C12.1649407,0.430835411 11.0743724,-0.212119894 10.0051731,0.0639947312 C8.93597373,0.340109356 8.29296704,1.43063404 8.5690769,2.49978935 C8.75090077,3.20410347 9.30087111,3.75408331 10.0051731,3.93591032 L10.0051731,7.84025485 C9.2088345,8.36717828 8.37331945,8.83230552 7.50587588,9.23157514 L7.50587588,2.0074193 C7.50593836,1.73142965 7.28225127,1.50761372 7.00626637,1.50755123 C7.00620389,1.50755123 7.00607893,1.50755123 7.00601645,1.50755123 L3.93587979,1.50755123 C3.65976994,0.438333432 2.56926409,-0.204621873 1.50006476,0.0714302687 C0.430865428,0.347482411 -0.212078771,1.43806957 0.0639686027,2.50728738 C0.340015976,3.57650518 1.4305843,4.21946048 2.49978363,3.94340834 C3.20408558,3.76158133 3.75405592,3.21160149 3.93587979,2.50728738 L6.50615701,2.50728738 L6.50615701,9.66164913 C5.6854503,9.98550116 4.84274977,10.2506812 3.98442864,10.4551272 C3.92469544,10.4693734 3.86814884,10.4944293 3.81747559,10.5291077 L3.72475166,10.5925909 C3.58860245,10.6857538 3.50712536,10.8400256 3.50706288,11.0050446 L3.50706288,12.4216707 C3.51706007,19.9713031 7.92819462,26.8219325 14.7968881,29.9551056 C14.9283511,30.0149648 15.0793712,30.0149648 15.2108342,29.9551056 C22.0795277,26.8219325 26.4905997,19.9713031 26.5006594,12.4216707 L26.5006594,11.0050446 C26.5005969,10.8400256 26.4191198,10.6856914 26.2829706,10.5925284 L26.1902467,10.5290452 C26.1395734,10.4943669 26.0830268,10.469311 26.0232936,10.4550647 C25.5093757,10.3332844 25.0018309,10.1865106 24.5012841,10.0214292 L24.5012841,6.50623194 L26.0718425,6.50623194 C26.3497019,7.57313785 27.4398328,8.21271905 28.5067203,7.93485488 C29.5733578,7.65699072 30.212928,6.56684094 29.9350686,5.49993503 Z M2.00742209,3.00715545 C1.45526486,3.00715545 1.00770322,2.55958607 1.00770322,2.0074193 C1.00770322,1.45525254 1.45526486,1.00768316 2.00742209,1.00768316 C2.55957932,1.00768316 3.00714096,1.45525254 3.00714096,2.0074193 C3.00651614,2.55933614 2.55926691,3.00653061 2.00742209,3.00715545 Z M20.5022212,2.0074193 C20.5022212,1.45525254 20.9497829,1.00768316 21.5019401,1.00768316 C22.0540973,1.00768316 22.501659,1.45525254 22.501659,2.0074193 C22.501659,2.55958607 22.0540973,3.00715545 21.5019401,3.00715545 C20.9500328,3.00653061 20.502846,2.55933614 20.5022212,2.0074193 Z M9.50531362,2.0074193 C9.50531362,1.45525254 9.95287527,1.00768316 10.5050325,1.00768316 C11.0571897,1.00768316 11.5047514,1.45525254 11.5047514,2.0074193 C11.5047514,2.55958607 11.0571897,3.00715545 10.5050325,3.00715545 C9.9531252,3.00653061 9.50593845,2.55933614 9.50531362,2.0074193 Z M25.5008156,11.3562644 L25.5008156,12.4216707 C25.4915057,19.4971158 21.4039051,25.9331046 15.0037674,28.9495585 C8.60362968,25.9331046 4.51609163,19.4971158 4.50671927,12.4216707 L4.50671927,11.3562644 C8.8272543,10.2601162 12.7587737,7.65336668 15.0037674,4.42253189 C17.2486986,7.65342916 21.180218,10.2601162 25.5008156,11.3562644 Z M28.0001127,7.00610001 C27.4479555,7.00610001 27.0003939,6.55853063 27.0003939,6.00636387 C27.0003939,5.4541971 27.4479555,5.00662773 28.0001127,5.00662773 C28.55227,5.00662773 28.9998316,5.4541971 28.9998316,6.00636387 C28.9992068,6.5582807 28.5519576,7.00547517 28.0001127,7.00610001 Z" id="Shape"></path>
            </g>
        </g>
    </g>
</svg>