<?xml version="1.0" encoding="UTF-8" standalone="no"?>
<svg width="32px" height="31px" viewBox="0 0 32 31" version="1.1" xmlns="http://www.w3.org/2000/svg" xmlns:xlink="http://www.w3.org/1999/xlink">
    <!-- Generator: sketchtool 49 (51002) - http://www.bohemiancoding.com/sketch -->
    <title>0920F332-BE89-446E-9171-451B7C68DB0F</title>
    <desc>Created with sketchtool.</desc>
    <defs></defs>
    <g id="Page-1" stroke="none" stroke-width="1" fill="none" fill-rule="evenodd">
        <g id="View-PF" transform="translate(-344.000000, -163.000000)" fill="#FFFFFF" fill-rule="nonzero">
            <g id="server" transform="translate(344.000000, 163.000000)">
                <path d="M5.6,3.20689655 C4.2768,3.20689655 3.2,4.28601724 3.2,5.61206897 C3.2,6.93812069 4.2768,8.01724138 5.6,8.01724138 C6.9232,8.01724138 8,6.93812069 8,5.61206897 C8,4.28601724 6.9232,3.20689655 5.6,3.20689655 Z M5.6,6.94827586 C4.86506667,6.94827586 4.26666667,6.34912069 4.26666667,5.61206897 C4.26666667,4.87501724 4.86506667,4.27586207 5.6,4.27586207 C6.33493333,4.27586207 6.93333333,4.87501724 6.93333333,5.61206897 C6.93333333,6.34912069 6.33493333,6.94827586 5.6,6.94827586 Z" id="Shape"></path>
                <ellipse id="Oval" cx="26.6666667" cy="4.81034483" rx="1" ry="1"></ellipse>
                <ellipse id="Oval" cx="24.5333333" cy="4.81034483" rx="1" ry="1"></ellipse>
                <ellipse id="Oval" cx="27.7333333" cy="6.4137931" rx="1" ry="1"></ellipse>
                <ellipse id="Oval" cx="25.6" cy="6.4137931" rx="1" ry="1"></ellipse>
                <ellipse id="Oval" cx="22.4" cy="4.81034483" rx="1" ry="1"></ellipse>
                <ellipse id="Oval" cx="23.4666667" cy="6.4137931" rx="1" ry="1"></ellipse>
                <ellipse id="Oval" cx="20.2666667" cy="4.81034483" rx="1" ry="1"></ellipse>
                <ellipse id="Oval" cx="21.3333333" cy="6.4137931" rx="1" ry="1"></ellipse>
                <ellipse id="Oval" cx="18.1333333" cy="4.81034483" rx="1" ry="1"></ellipse>
                <ellipse id="Oval" cx="19.2" cy="6.4137931" rx="1" ry="1"></ellipse>
                <path d="M32,8.76124138 L32,2.46289655 C32,1.10477586 30.8976,0 29.5424,0 L2.4576,0 C1.1024,0 0,1.10477586 0,2.46289655 L0,8.7607069 C0,9.54586207 0.374933333,10.2385517 0.947733333,10.6896552 C0.374933333,11.1407586 0,11.8334483 0,12.618069 L0,18.9158793 C0,20.2745345 1.1024,21.3793103 2.4576,21.3793103 L15.4666667,21.3793103 L15.4666667,25.7091552 C14.4234667,25.9224138 13.6,26.7476552 13.3872,27.7931034 L0.533333333,27.7931034 C0.238933333,27.7931034 0,28.0320172 0,28.3275862 C0,28.6231552 0.238933333,28.862069 0.533333333,28.862069 L13.3872,28.862069 C13.6352,30.0801552 14.712,31 16,31 C17.288,31 18.3648,30.0801552 18.6128,28.862069 L31.4666667,28.862069 C31.7610667,28.862069 32,28.6231552 32,28.3275862 C32,28.0320172 31.7610667,27.7931034 31.4666667,27.7931034 L18.6128,27.7931034 C18.4,26.7476552 17.5765333,25.9224138 16.5333333,25.7091552 L16.5333333,21.3793103 L29.5424,21.3793103 C30.8976,21.3793103 32,20.2745345 32,18.9164138 L32,12.618069 C32,11.8329138 31.6250667,11.1407586 31.0522667,10.6896552 C31.6250667,10.2385517 32,9.54586207 32,8.76124138 Z M17.6,28.3275862 C17.6,29.2116207 16.8821333,29.9310345 16,29.9310345 C15.1178667,29.9310345 14.4,29.2116207 14.4,28.3275862 C14.4,27.4435517 15.1178667,26.7241379 16,26.7241379 C16.8821333,26.7241379 17.6,27.4435517 17.6,28.3275862 Z M30.9333333,12.618069 L30.9333333,18.9158793 C30.9333333,19.685 30.3093333,20.3103448 29.5424,20.3103448 L2.4576,20.3103448 C1.69066667,20.3103448 1.06666667,19.685 1.06666667,18.9164138 L1.06666667,12.618069 C1.06666667,11.8494828 1.69066667,11.2241379 2.4576,11.2241379 L29.5418667,11.2241379 C30.3093333,11.2241379 30.9333333,11.8494828 30.9333333,12.618069 Z M2.4576,10.1551724 C1.69066667,10.1551724 1.06666667,9.52982759 1.06666667,8.76124138 L1.06666667,2.46289655 C1.06666667,1.69431034 1.69066667,1.06896552 2.4576,1.06896552 L29.5418667,1.06896552 C30.3093333,1.06896552 30.9333333,1.69431034 30.9333333,2.46289655 L30.9333333,8.7607069 C30.9333333,9.52982759 30.3093333,10.1551724 29.5424,10.1551724 L2.4576,10.1551724 Z" id="Shape"></path>
                <path d="M5.6,18.1724138 C6.9232,18.1724138 8,17.0932931 8,15.7672414 C8,14.4411897 6.9232,13.362069 5.6,13.362069 C4.2768,13.362069 3.2,14.4411897 3.2,15.7672414 C3.2,17.0932931 4.2768,18.1724138 5.6,18.1724138 Z M5.6,14.4310345 C6.33493333,14.4310345 6.93333333,15.0301897 6.93333333,15.7672414 C6.93333333,16.5042931 6.33493333,17.1034483 5.6,17.1034483 C4.86506667,17.1034483 4.26666667,16.5042931 4.26666667,15.7672414 C4.26666667,15.0301897 4.86506667,14.4310345 5.6,14.4310345 Z" id="Shape"></path>
                <ellipse id="Oval" cx="26.6666667" cy="14.9655172" rx="1" ry="1"></ellipse>
                <ellipse id="Oval" cx="24.5333333" cy="14.9655172" rx="1" ry="1"></ellipse>
                <ellipse id="Oval" cx="27.7333333" cy="16.5689655" rx="1" ry="1"></ellipse>
                <ellipse id="Oval" cx="25.6" cy="16.5689655" rx="1" ry="1"></ellipse>
                <ellipse id="Oval" cx="22.4" cy="14.9655172" rx="1" ry="1"></ellipse>
                <ellipse id="Oval" cx="23.4666667" cy="16.5689655" rx="1" ry="1"></ellipse>
                <ellipse id="Oval" cx="20.2666667" cy="14.9655172" rx="1" ry="1"></ellipse>
                <ellipse id="Oval" cx="21.3333333" cy="16.5689655" rx="1" ry="1"></ellipse>
                <ellipse id="Oval" cx="18.1333333" cy="14.9655172" rx="1" ry="1"></ellipse>
                <ellipse id="Oval" cx="19.2" cy="16.5689655" rx="1" ry="1"></ellipse>
            </g>
        </g>
    </g>
</svg>